<svg xmlns="http://www.w3.org/2000/svg" xmlns:xlink="http://www.w3.org/1999/xlink" viewBox="-5.0 -10.0 110.0 135.0" x="0px" y="0px">
<path d="M3866.041,691.779A41,41,0,0,1,3879,613.107v-1.646h-4a3,3,0,1,1,0-6h14a3,3,0,0,1,0,6h-4v1.646a41,41,0,1,1-18.959,78.671ZM3847,654a35,35,0,1,0,35-35A35.041,35.041,0,0,0,3847,654Zm72.556-23.736-9.9-9.9a3,3,0,0,1,4.242-4.243l9.9,9.9a3,3,0,0,1-4.243,4.243Z" transform="translate(-3833.002 -600.461)"/>
<path d="M3234,699a6,6,0,0,1,11.2-3H3264a3,3,0,0,1,0,6h-18.8a6,6,0,0,1-11.2-3Z" transform="translate(-2736.267 1850.333) rotate(-45)"/>
</svg>