<svg xmlns="http://www.w3.org/2000/svg" data-name="Layer 1" viewBox="0 0 100 125" x="0px" y="0px">
<path d="m81.63,70.43c0-2.92-2.37-5.29-5.29-5.29s-5.29,2.37-5.29,5.29,2.37,5.29,5.29,5.29,5.29-2.37,5.29-5.29Zm-7.58,0c0-1.26,1.03-2.29,2.29-2.29s2.29,1.03,2.29,2.29-1.03,2.29-2.29,2.29-2.29-1.03-2.29-2.29Z"/>
<path d="m38.62,45.4c-1.53.84-3.14,1.59-4.86,2.38-4.46,2.06-9.07,4.18-12.27,8.13-2.02,2.49-2.76,5.13-2.2,7.83,1.13,5.53,7.37,9.87,12.41,12.54,14.36,7.62,29.28,12.22,44.34,13.68.1.01.2.04.31.04,1.02,0,1.96-.51,2.52-1.37,3.89-6.03,8.53-14.09,8.53-18.2,0-6.09-4.96-11.05-11.05-11.05s-11.05,4.96-11.05,11.05c0,3.65,3.66,10.41,7.2,16.1-13.37-1.78-26.6-6.11-39.39-12.9-6.22-3.3-10.19-7.13-10.87-10.49-.37-1.81.15-3.56,1.6-5.35,2.76-3.41,7.04-5.38,11.19-7.3,1.69-.78,3.43-1.58,5.05-2.47.95-.52,3.83-2.11,3.5-4.56-.24-1.82-2.14-3.19-5.64-4.05-3.59-.89-7.28-1.3-10.85-1.57,3.67-5.83,7.63-12.99,7.63-16.79,0-6.09-4.96-11.05-11.05-11.05s-11.05,4.96-11.05,11.05c0,4.12,4.64,12.17,8.53,18.2.53.82,1.42,1.31,2.39,1.36h0c4.46.27,9.19.61,13.68,1.71,2.51.62,3.31,1.35,3.38,1.48,0,0-.18.6-1.97,1.59Zm29.67,25.03c0-4.44,3.61-8.05,8.05-8.05s8.05,3.61,8.05,8.05c0,2.56-3.01,8.75-8.03,16.55,0,0-.02,0-.03,0-5.03-7.8-8.04-13.99-8.04-16.55ZM15.61,21.05c0-4.44,3.61-8.05,8.05-8.05s8.05,3.61,8.05,8.05c0,2.57-3.01,8.76-8.05,16.58-5.04-7.81-8.05-14.01-8.05-16.58Z"/>
<path d="m23.66,15.76c-2.92,0-5.29,2.37-5.29,5.29s2.37,5.29,5.29,5.29,5.29-2.37,5.29-5.29-2.37-5.29-5.29-5.29Zm0,7.58c-1.26,0-2.29-1.03-2.29-2.29s1.03-2.29,2.29-2.29,2.29,1.03,2.29,2.29-1.03,2.29-2.29,2.29Z"/>
</svg>