<svg xmlns="http://www.w3.org/2000/svg" data-name="Layer 1" viewBox="0 0 100 125" x="0px" y="0px"><defs><style>.cls-1{fill-rule:evenodd;}</style></defs><title>a</title><path class="cls-1" d="M42.592,22.948q1.6,0,3.172.141V18.656H39.42v4.433q1.568-.139,3.172-.141Zm29.5,54.357h3.383a1.2,1.2,0,0,1,0,2.395h-5.09A35.179,35.179,0,1,1,16.115,34.965l-2.422-2.422a5.467,5.467,0,0,1-7.1-8.276l5.309-5.309a5.467,5.467,0,0,1,8.276,7.1l2.838,2.839a34.972,34.972,0,0,1,14.005-5.5V18.656h-4.4a1.2,1.2,0,0,1-1.2-1.2V10.581a3.9,3.9,0,0,1,3.886-3.887H49.871a3.9,3.9,0,0,1,3.886,3.887v6.878a1.2,1.2,0,0,1-1.2,1.2h-4.4v4.731A35.147,35.147,0,0,1,70.381,36.554H90.749a1.2,1.2,0,0,1,0,2.4H72.088A34.99,34.99,0,0,1,76.86,50.138h9.191a1.2,1.2,0,0,1,0,2.4H77.328a35.521,35.521,0,0,1,0,11.188h9.9a1.2,1.2,0,0,1,0,2.4H76.86a35.025,35.025,0,0,1-4.771,11.189ZM79.227,79.7H93.8a1.2,1.2,0,1,0,0-2.395H79.227a1.2,1.2,0,1,0,0,2.395ZM90.762,52.533H93.8a1.2,1.2,0,1,0,0-2.4H90.762a1.2,1.2,0,1,0,0,2.4ZM13.6,20.652,8.291,25.96A3.072,3.072,0,0,0,12.635,30.3L17.943,25A3.071,3.071,0,0,0,13.6,20.652Zm7.453,9.659-2.519-2.519-3.1,3.1,2.322,2.321a35.446,35.446,0,0,1,3.3-2.905Zm21.6,57.18a29.365,29.365,0,1,0-29.421-29.4,29.274,29.274,0,0,0,29.421,29.4ZM41.394,85.07v-3.5a1.2,1.2,0,1,1,2.4,0v3.5A26.864,26.864,0,0,0,60.8,78.025L41.754,58.983a1.193,1.193,0,0,1-.36-.856V31.184a26.869,26.869,0,0,0-17.007,7.045L26.861,40.7A1.2,1.2,0,0,1,25.168,42.4l-2.474-2.474A26.861,26.861,0,0,0,15.649,56.93h3.5a1.2,1.2,0,0,1,0,2.4h-3.5a26.867,26.867,0,0,0,7.045,17.007l2.474-2.473a1.2,1.2,0,0,1,1.693,1.693l-2.473,2.474A26.865,26.865,0,0,0,41.394,85.07Zm2.4-53.886V57.631l18.7,18.7a26.97,26.97,0,0,0-18.7-45.148ZM47.232,9.09V11.5a1.2,1.2,0,0,1-2.4,0V9.09H40.348V11.5a1.2,1.2,0,0,1-2.4,0V9.09H35.313a1.5,1.5,0,0,0-1.491,1.491v5.68h17.54v-5.68A1.5,1.5,0,0,0,49.871,9.09ZM65.774,34.945a32.784,32.784,0,1,1-46.364,0A32.786,32.786,0,0,1,65.774,34.945Z"/><text x="0" y="115" fill="#000000" font-size="5px" font-weight="bold" font-family="'Helvetica Neue', Helvetica, Arial-Unicode, Arial, Sans-serif">Created by Chimol</text><text x="0" y="120" fill="#000000" font-size="5px" font-weight="bold" font-family="'Helvetica Neue', Helvetica, Arial-Unicode, Arial, Sans-serif">from the Noun Project</text></svg>