<svg xmlns="http://www.w3.org/2000/svg" version="1.1" viewBox="-5.0 -10.0 110.0 135.0">
 <path d="m81.074 9.6094c-3.7969-3.7969-9.9531-3.7969-13.75 0s-3.7969 9.9531 0 13.746c3.7969 3.7969 9.9531 3.7969 13.75 0s3.7969-9.9531 0-13.746zm-65.75 42.113c-1.5664 0-2.832-1.2695-2.832-2.8359 0-1.5664 1.2695-2.8359 2.832-2.8359h15.762c1.5664 0 2.832 1.2695 2.832 2.8359 0 1.5664-1.2695 2.8359-2.832 2.8359zm-9.9883-12.633c-1.5664 0-2.8359-1.2695-2.8359-2.8359s1.2695-2.8359 2.8359-2.8359h25.211c1.5664 0 2.8359 1.2695 2.8359 2.8359s-1.2695 2.8359-2.8359 2.8359zm10.609-12.633c-1.5664 0-2.832-1.2695-2.832-2.8359s1.2695-2.8359 2.832-2.8359h23.402c1.5664 0 2.8359 1.2695 2.8359 2.8359s-1.2695 2.8359-2.8359 2.8359zm61.621 7.5977c1.5508 1.1133 3.3516 1.2031 4.9883 0.25781l8.5742-4.9492c2.0273-1.1758 4.6211-0.48438 5.7969 1.543s0.48438 4.6211-1.543 5.7969l-8.5742 4.9492c-4.5156 2.6094-9.9609 2.3438-14.188-0.6875l-4.8164-3.4531-8.8867 15.387 4.9062 2.832c4.5 2.5977 6.9883 7.4414 6.4766 12.625l-2.0781 21.062c-0.23047 2.3281-2.3047 4.0312-4.6328 3.8047-2.3281-0.23047-4.0312-2.3047-3.8047-4.6328l2.082-21.059c0.1875-1.8984-0.63281-3.4961-2.293-4.457l-4.8945-2.8281-2.8359 4.9062c-2.5977 4.5039-7.4414 6.9883-12.625 6.4766l-21.062-2.082c-2.3281-0.23047-4.0312-2.3047-3.8047-4.6328 0.23047-2.3281 2.3047-4.0312 4.6328-3.8047l21.059 2.082c1.8984 0.1875 3.4961-0.63281 4.457-2.293l15.012-25.996-4.0117-0.39844c-1.8984-0.1875-3.5039 0.62891-4.4609 2.2891l-4.9414 8.5625c-1.1641 2.0273-3.7539 2.7266-5.7773 1.5625-2.0273-1.1641-2.7266-3.7539-1.5625-5.7773l4.9492-8.5898c2.5977-4.5039 7.4414-6.9883 12.625-6.4766l8.1914 0.80859c2.3594 0.23438 4.4414 1.0117 6.3477 2.3789l6.6914 4.7969z" fill-rule="evenodd"/>
<text x="0.0" y="117.5" font-size="5.0" font-weight="bold" font-family="Arbeit Regular, Helvetica, Arial-Unicode, Arial, Sans-serif" fill="#000000">Created by etika ariatna</text><text x="0.0" y="122.5" font-size="5.0" font-weight="bold" font-family="Arbeit Regular, Helvetica, Arial-Unicode, Arial, Sans-serif" fill="#000000">from Noun Project</text></svg>